# xmcd
#
# Track frame offsets: 
#        150
#        15887
#        35278
#        50908
#        67626
#        86686
#        100802
#        120031
#        132628
#        149800
#        161998
#        178209
#
# Disc length: 2471 seconds
#
# Revision: 0
# Processed by: cddbd v1.5.2PL0 Copyright (c) Steve Scherf et al.
# Submitted via: ExactAudioCopyFreeDBPlugin 1.0
#
DISCID=a209a50c
DTITLE=Harrison Kennedy - This Is From Here
DYEAR=2015
DGENRE=Blues
TTITLE0=Walkin' Or Ridin'
TTITLE1=Shake The Hand
TTITLE2=Falling Down
TTITLE3=Jimmy Lee
TTITLE4=Can't Let Go
TTITLE5=Friday Dream
TTITLE6=You, Me Or Us
TTITLE7=Crocodile Lies
TTITLE8=I've Got News For You
TTITLE9=Milk Cow Blues
TTITLE10=I Believe
TTITLE11=Judgment Day
EXTD=
EXTT0=
EXTT1=
EXTT2=
EXTT3=
EXTT4=
EXTT5=
EXTT6=
EXTT7=
EXTT8=
EXTT9=
EXTT10=
EXTT11=
PLAYORDER=
